<svg xmlns="http://www.w3.org/2000/svg" width="1179" height="746" viewBox="0 0 1179 746">
<g>
<path d="M 362.00 685.94 C351.74,687.11 320.32,688.05 313.00,687.40 C263.05,683.00 232.36,673.40 200.50,652.21 C166.59,629.65 143.04,596.38 133.52,557.61 C128.38,536.65 128.63,546.05 127.99,352.00 C127.53,211.68 127.12,170.50 126.14,167.00 C119.70,143.93 101.71,128.17 79.50,126.14 L 72.50 125.50 L 72.19 121.24 L 71.88 116.99 L 164.19 117.24 L 256.50 117.50 L 256.50 125.50 L 249.50 126.07 C230.65,127.59 216.41,137.21 208.16,154.02 C207.14,156.09 206.27,157.63 205.52,159.23 C200.91,169.07 200.93,181.08 201.20,329.80 C201.22,340.92 201.24,352.80 201.26,365.51 L 201.57 553.50 L 203.84 563.50 C212.45,601.29 230.36,628.80 258.55,647.56 C291.35,669.39 339.28,676.91 388.74,668.00 C420.66,662.26 449.61,647.40 471.55,625.52 C491.98,605.14 504.78,581.47 510.49,553.50 C513.77,537.42 514.09,517.88 513.79,348.00 L 513.50 179.50 L 510.41 173.00 C503.18,157.76 491.25,146.55 472.64,137.51 C459.67,131.20 446.10,127.18 434.92,126.31 C426.28,125.65 424.68,124.66 425.18,120.31 L 425.50 117.50 L 465.00 117.57 L 504.50 117.64 L 516.29 120.76 C529.08,124.15 545.54,131.47 555.38,138.16 C568.89,147.34 582.40,161.42 590.24,174.50 C592.22,177.80 602.83,200.75 613.81,225.50 C624.80,250.25 648.95,304.70 667.48,346.50 C686.02,388.30 706.70,434.88 713.44,450.00 C720.17,465.12 736.20,501.24 749.06,530.26 C761.91,559.28 772.86,582.88 773.38,582.71 C773.90,582.53 777.22,574.77 780.75,565.45 C784.28,556.13 794.52,529.38 803.50,506.00 C812.48,482.62 827.03,444.60 835.84,421.50 C844.65,398.40 853.96,374.10 856.52,367.50 C859.09,360.90 869.43,333.90 879.51,307.50 C939.18,151.23 934.62,162.05 945.89,149.83 C953.66,141.40 962.07,135.28 973.89,129.45 C991.38,120.82 1010.17,117.05 1035.81,117.02 L 1051.11 117.00 L 1050.81 121.24 L 1050.50 125.48 L 1045.04 126.26 C1023.26,129.38 1008.01,149.50 1000.93,184.49 C997.20,202.90 996.89,223.26 997.25,425.50 C997.57,610.18 997.69,620.87 999.41,627.50 C1005.35,650.34 1019.48,665.45 1038.73,669.53 C1042.45,670.32 1047.44,670.97 1049.81,670.98 L 1054.12 671.00 L 1053.81 674.75 L 1053.50 678.50 L 961.25 678.76 L 869.00 679.01 L 869.00 675.01 C869.00,671.05 869.05,671.00 872.75,670.96 C878.79,670.91 888.51,668.47 894.73,665.46 C903.33,661.28 913.81,650.37 918.26,640.95 C919.15,639.09 919.91,637.67 920.58,636.21 C925.02,626.48 925.02,614.72 925.00,454.47 C925.00,443.09 925.00,430.97 925.00,418.04 C925.00,308.02 924.64,218.00 924.20,218.00 C923.76,218.00 915.60,238.36 906.07,263.25 C896.55,288.14 885.68,316.38 881.92,326.00 C878.17,335.62 868.37,361.05 860.16,382.50 C851.94,403.95 843.62,425.55 841.68,430.50 C839.74,435.45 831.06,457.95 822.40,480.50 C813.74,503.05 804.91,526.00 802.78,531.50 C796.86,546.78 786.33,574.27 781.86,586.12 L 777.86 596.73 L 786.89 614.89 C797.35,635.91 805.64,648.59 815.50,658.61 C823.01,666.25 828.37,669.56 834.96,670.61 C839.01,671.26 839.10,671.36 838.80,674.89 L 838.50 678.50 L 822.00 678.80 C798.33,679.24 784.42,676.91 767.13,669.61 C743.36,659.59 720.89,639.43 709.59,618.00 C706.60,612.33 699.50,596.67 686.02,566.00 C668.63,526.45 603.81,379.68 572.51,309.00 C555.03,269.55 533.45,220.68 529.22,211.00 C526.69,205.23 524.04,199.84 523.31,199.04 C522.23,197.83 522.00,226.01 522.00,361.18 C522.00,467.95 521.64,528.39 520.95,535.14 C518.71,557.35 513.02,578.01 504.44,595.14 C478.81,646.35 428.64,678.33 362.00,685.94 Z" fill="rgb(32,30,31)"/>
<path d="M 0.00 373.00 L 0.00 0.00 L 589.50 0.00 L 1179.00 0.00 L 1179.00 373.00 L 1179.00 746.00 L 589.50 746.00 L 0.00 746.00 L 0.00 373.00 ZM 362.00 685.94 C428.64,678.33 478.81,646.35 504.44,595.14 C513.02,578.01 518.71,557.35 520.95,535.14 C521.64,528.39 522.00,467.95 522.00,361.18 C522.00,226.01 522.23,197.83 523.31,199.04 C524.04,199.84 526.69,205.23 529.22,211.00 C533.45,220.68 555.03,269.55 572.51,309.00 C603.81,379.68 668.63,526.45 686.02,566.00 C699.50,596.67 706.60,612.33 709.59,618.00 C720.89,639.43 743.36,659.59 767.13,669.61 C784.42,676.91 798.33,679.24 822.00,678.80 L 838.50 678.50 L 838.80 674.89 C839.10,671.36 839.01,671.26 834.96,670.61 C828.37,669.56 823.01,666.25 815.50,658.61 C805.64,648.59 797.35,635.91 786.89,614.89 L 777.86 596.73 L 781.86 586.12 C786.33,574.27 796.86,546.78 802.78,531.50 C804.91,526.00 813.74,503.05 822.40,480.50 C831.06,457.95 839.74,435.45 841.68,430.50 C843.62,425.55 851.94,403.95 860.16,382.50 C868.37,361.05 878.17,335.62 881.92,326.00 C885.68,316.38 896.55,288.14 906.07,263.25 C915.60,238.36 923.76,218.00 924.20,218.00 C924.64,218.00 925.00,308.02 925.00,418.04 C925.00,640.39 925.44,625.78 918.26,640.95 C913.81,650.37 903.33,661.28 894.73,665.46 C888.51,668.47 878.79,670.91 872.75,670.96 C869.05,671.00 869.00,671.05 869.00,675.01 L 869.00 679.01 L 961.25 678.76 L 1053.50 678.50 L 1053.81 674.75 L 1054.12 671.00 L 1049.81 670.98 C1047.44,670.97 1042.45,670.32 1038.73,669.53 C1019.48,665.45 1005.35,650.34 999.41,627.50 C997.69,620.87 997.57,610.18 997.25,425.50 C996.89,223.26 997.20,202.90 1000.93,184.49 C1008.01,149.50 1023.26,129.38 1045.04,126.26 L 1050.50 125.48 L 1050.81 121.24 L 1051.11 117.00 L 1035.81 117.02 C1010.17,117.05 991.38,120.82 973.89,129.45 C962.07,135.28 953.66,141.40 945.89,149.83 C934.62,162.05 939.18,151.23 879.51,307.50 C869.43,333.90 859.09,360.90 856.52,367.50 C853.96,374.10 844.65,398.40 835.84,421.50 C827.03,444.60 812.48,482.62 803.50,506.00 C794.52,529.38 784.28,556.13 780.75,565.45 C777.22,574.77 773.90,582.53 773.38,582.71 C772.86,582.88 761.91,559.28 749.06,530.26 C736.20,501.24 720.17,465.12 713.44,450.00 C706.70,434.88 686.02,388.30 667.48,346.50 C648.95,304.70 624.80,250.25 613.81,225.50 C602.83,200.75 592.22,177.80 590.24,174.50 C582.40,161.42 568.89,147.34 555.38,138.16 C545.54,131.47 529.08,124.15 516.29,120.76 L 504.50 117.64 L 465.00 117.57 L 425.50 117.50 L 425.18 120.31 C424.68,124.66 426.28,125.65 434.92,126.31 C446.10,127.18 459.67,131.20 472.64,137.51 C491.25,146.55 503.18,157.76 510.41,173.00 L 513.50 179.50 L 513.79 348.00 C514.09,517.88 513.77,537.42 510.49,553.50 C504.78,581.47 491.98,605.14 471.55,625.52 C449.61,647.40 420.66,662.26 388.74,668.00 C339.28,676.91 291.35,669.39 258.55,647.56 C230.36,628.80 212.45,601.29 203.84,563.50 L 201.57 553.50 L 201.26 365.51 C200.92,155.26 200.45,169.73 208.16,154.02 C216.41,137.21 230.65,127.59 249.50,126.07 L 256.50 125.50 L 256.50 121.50 L 256.50 117.50 L 164.19 117.24 L 71.88 116.99 L 72.19 121.24 L 72.50 125.50 L 79.50 126.14 C101.71,128.17 119.70,143.93 126.14,167.00 C127.12,170.50 127.53,211.68 127.99,352.00 C128.63,546.05 128.38,536.65 133.52,557.61 C143.04,596.38 166.59,629.65 200.50,652.21 C232.36,673.40 263.05,683.00 313.00,687.40 C320.32,688.05 351.74,687.11 362.00,685.94 Z" fill="rgb(254,254,254)"/>
</g>
</svg>